<?xml version="1.0" encoding="iso-8859-1"?>
<!-- Uploaded to: SVG Repo, www.svgrepo.com, Generator: SVG Repo Mixer Tools -->
<svg height="800px" width="800px" version="1.1" id="Layer_1" xmlns="http://www.w3.org/2000/svg" xmlns:xlink="http://www.w3.org/1999/xlink" 
	 viewBox="0 0 420 420" xml:space="preserve">
<g id="XMLID_102_">
	<path id="XMLID_103_" style="fill:#EBAFD1;" d="M210,0C94.02,0,0,94.021,0,210c0,33.136,26.863,60,60,60h40c5.514,0,10,4.486,10,10
		s-4.486,10-10,10c-22.056,0-40,17.944-40,40s17.944,40,40,40c5.514,0,10,4.486,10,10s-4.486,10-10,10v30c22.056,0,40-17.944,40-40
		s-17.944-40-40-40c-5.514,0-10-4.486-10-10s4.486-10,10-10c22.056,0,40-17.944,40-40c0-3.451-0.44-6.803-1.266-10H205
		c5.514,0,10,4.486,10,10s-4.486,10-10,10c-22.056,0-40,17.944-40,40s17.944,40,40,40c5.514,0,10,4.486,10,10s-4.486,10-10,10v30
		c22.056,0,40-17.944,40-40s-17.944-40-40-40c-5.514,0-10-4.486-10-10s4.486-10,10-10c22.056,0,40-17.944,40-40
		c0-3.451-0.44-6.803-1.266-10H315c5.514,0,10,4.486,10,10s-4.486,10-10,10c-22.056,0-40,17.944-40,40s17.944,40,40,40
		c5.514,0,10,4.486,10,10s-4.486,10-10,10v30c22.056,0,40-17.944,40-40s-17.944-40-40-40c-5.514,0-10-4.486-10-10s4.486-10,10-10
		c22.056,0,40-17.944,40-40c0-3.451-0.44-6.803-1.266-10H360c33.137,0,60-26.864,60-60C420,94.021,325.98,0,210,0z"/>
	<g id="XMLID_104_">
		<path id="XMLID_105_" style="fill:#F2CCE4;" d="M210,0L210,0c96.368,19.058,170,108.04,170,210c0,33.136-26.863,60-60,60h40
			c33.137,0,60-26.864,60-60C420,94.021,325.98,0,210,0z"/>
	</g>
	<g id="XMLID_106_">
		<path id="XMLID_107_" style="fill:#E592BF;" d="M210,0L210,0C113.632,19.058,40,108.04,40,210c0,33.136,26.863,60,60,60H60
			c-33.137,0-60-26.864-60-60C0,94.021,94.02,0,210,0z"/>
	</g>
	<ellipse id="XMLID_108_" style="fill:#E592BF;" cx="210" cy="145" rx="120" ry="90"/>
</g>
</svg>