<?xml version="1.0" encoding="iso-8859-1"?>
<!-- Uploaded to: SVG Repo, www.svgrepo.com, Generator: SVG Repo Mixer Tools -->
<svg height="800px" width="800px" version="1.1" id="Layer_1" xmlns="http://www.w3.org/2000/svg" xmlns:xlink="http://www.w3.org/1999/xlink" 
	 viewBox="0 0 504.675 504.675" xml:space="preserve">
<g transform="translate(3 1)">
	<path style="fill:#C49AE9;" d="M479.675,498.475h-188.6c0.9-2.6,0.9-6,0.9-8.5c0-11.9-5.1-22.2-11.9-29.9l0.9-0.9
		c5.1-10.2,19.6-20.5,19.6-20.5s17.1-8.5,42.7-8.5l-8.5,34.1C385.775,464.275,445.575,464.275,479.675,498.475z M217.675,459.175
		l0.9,0.9c-7.7,7.7-11.9,17.9-11.9,29.9c0,2.6,0,6,0.9,8.5h-188.7c34.1-34.1,93.9-34.1,145.1-34.1l-8.5-34.1
		c25.6,0,42.7,8.5,42.7,8.5S211.775,445.575,217.675,459.175z"/>
	<path style="fill:#FFE079;" d="M164.775,180.975L164.775,180.975c-0.9,0.9-14.5,63.1-60.6,75.9c-5.1,1.7-11.1,2.6-17.1,2.6
		c-51.2,0-68.3-51.2-68.3-93.9c0,0,17.1,25.6,34.1,25.6c8.5,0,25.6-8.5,25.6-42.7s34.1-59.7,59.7-59.7h34.1h153.6h34.1
		c25.6,0,59.7,25.6,59.7,59.7s17.1,42.7,25.6,42.7c17.1,0,34.1-25.6,34.1-25.6c0,42.7-17.1,93.9-68.3,93.9c-6,0-11.9-0.9-17.1-2.6
		c-46.1-12.8-59.7-75.1-59.7-75.1l-0.9-0.9c-23,24.7-51.2,35.8-84.5,35.8S187.875,206.575,164.775,180.975"/>
	<path style="fill:#FFD0A1;" d="M334.575,181.875c0,0,13.7,62.3,59.7,75.1v0.9c0,0,0,27.3-8.5,52.9c-14.5,0-25.6,11.1-25.6,25.6
		c0,4.3,0.9,9.4,3.4,12.8l-0.9,0.9c-7.7,10.2-19.6,20.5-19.6,20.5s-34.1,42.7-93.9,42.7s-93.9-42.7-93.9-42.7s-12.8-12.8-19.6-22.2
		c1.7-3.4,2.6-7.7,2.6-11.9c0-14.5-11.1-25.6-25.6-25.6c-8.5-25.6-8.5-52.9-8.5-52.9v-0.9c46.1-12.8,59.7-75.1,59.7-75.1l0.9-0.9
		c23,24.7,51.2,35.8,84.5,35.8s61.4-10.2,84.5-35.8L334.575,181.875z"/>
	<path style="fill:#FFE079;" d="M291.975,489.875c0,2.6,0,6-0.9,8.5h-83.6c-0.9-2.6-0.9-6-0.9-8.5c0-11.9,5.1-22.2,11.9-29.9
		c7.7-7.7,18.8-12.8,30.7-12.8c11.9,0,22.2,5.1,30.7,12.8C286.775,467.775,291.975,477.975,291.975,489.875"/>
	<g>
		<path style="fill:#ECF4F7;" d="M385.775,361.375c-9,0-17.5-4.9-21.8-12.5c-2.1-2.9-3.3-7.4-3.3-12.6c0-14.3,10.8-25.1,25.1-25.1
			s25.1,10.8,25.1,25.1S400.075,361.375,385.775,361.375z"/>
		<path style="fill:#ECF4F7;" d="M112.775,361.375c-14.3,0-25.1-10.8-25.1-25.1s10.8-25.1,25.1-25.1s25.1,10.8,25.1,25.1
			c0,4.3-0.9,8.5-2.5,11.7C131.075,356.575,122.875,361.375,112.775,361.375z"/>
		<path style="fill:#ECF4F7;" d="M172.775,88.375l-25.1-67l58.8,16.8h0.1c0.1,0,0.2,0,0.3-0.1l42.4-33.9l42.4,33.9
			c0.1,0.1,0.2,0.1,0.3,0.1h0.1l58.8-16.8l-25.1,67H172.775z"/>
	</g>
	<path style="fill:#2FC2FF;" d="M249.275,344.875c5.1,0,8.5,4.3,8.5,8.5s-3.4,8.5-8.5,8.5s-8.5-4.3-8.5-8.5
		S244.175,344.875,249.275,344.875"/>
</g>
<g>
	<path style="fill:#51565F;" d="M171.275,91.475c0.7,1.8,2.3,2.9,4.2,2.9h153.6c1.9,0,3.6-1.2,4.2-2.9l25.6-68.3
		c0.6-1.6,0.2-3.4-0.9-4.6c-1.2-1.2-2.9-1.7-4.5-1.3l-57.5,16.4l-40.9-32.7c-1.6-1.3-4-1.3-5.6,0l-40.9,32.7l-57.5-16.4
		c-1.6-0.5-3.4,0-4.5,1.3c-1.2,1.2-1.5,3-0.9,4.6L171.275,91.475z M208.375,42.975c1.4,0.4,2.9,0.1,4-0.8l39.9-31.9l39.9,31.9
		c1.1,0.9,2.6,1.2,4,0.8l51.1-14.6l-21.4,57h-147.3l-21.4-57L208.375,42.975z"/>
	<path style="fill:#51565F;" d="M115.775,367.375c11.9,0,22-6,27.1-16.1c1.8-3.6,2.9-8.1,3-12.8l0,0c0-0.4,0-0.8,0-1.1
		c0-0.5,0-1,0-1.5c0-0.2,0-0.3,0-0.5c0-0.3,0-0.7-0.1-1c0-0.2,0-0.4-0.1-0.6c0-0.3-0.1-0.6-0.1-0.9c0-0.2-0.1-0.4-0.1-0.6
		c0-0.3-0.1-0.6-0.1-0.8c0-0.2-0.1-0.4-0.1-0.6c-0.1-0.3-0.1-0.5-0.2-0.8c-0.1-0.2-0.1-0.4-0.2-0.6c-0.1-0.3-0.1-0.5-0.2-0.8
		c-0.1-0.2-0.1-0.4-0.2-0.6c-0.1-0.3-0.2-0.5-0.3-0.8c-0.1-0.2-0.1-0.4-0.2-0.6c-0.1-0.3-0.2-0.5-0.3-0.7s-0.2-0.4-0.2-0.6
		c-0.1-0.2-0.2-0.5-0.3-0.7s-0.2-0.4-0.3-0.6s-0.2-0.5-0.4-0.7c-0.1-0.2-0.2-0.4-0.3-0.5c-0.1-0.2-0.3-0.5-0.4-0.7
		c-0.1-0.2-0.2-0.3-0.3-0.5c-0.2-0.3-0.3-0.5-0.5-0.7c-0.1-0.1-0.2-0.3-0.3-0.4c-0.2-0.3-0.4-0.5-0.6-0.8c-0.1-0.1-0.1-0.2-0.2-0.3
		c-0.6-0.7-1.2-1.5-1.8-2.2c-0.1-0.1-0.2-0.2-0.3-0.3c-0.2-0.2-0.4-0.5-0.7-0.7c-0.1-0.1-0.2-0.2-0.4-0.4c-0.2-0.2-0.4-0.4-0.6-0.6
		c-0.1-0.1-0.3-0.2-0.4-0.4c-0.2-0.2-0.4-0.4-0.6-0.5c-0.1-0.1-0.3-0.2-0.4-0.4c-0.2-0.2-0.4-0.3-0.6-0.5c-0.2-0.1-0.3-0.2-0.5-0.3
		c-0.2-0.2-0.4-0.3-0.7-0.5c-0.2-0.1-0.3-0.2-0.5-0.3c-0.2-0.1-0.5-0.3-0.7-0.4s-0.3-0.2-0.5-0.3c-0.2-0.1-0.5-0.3-0.7-0.4
		s-0.3-0.2-0.5-0.3c-0.2-0.1-0.5-0.3-0.7-0.4s-0.3-0.2-0.5-0.3c-0.3-0.1-0.5-0.2-0.8-0.3c-0.2-0.1-0.4-0.2-0.5-0.2
		c-0.3-0.1-0.5-0.2-0.8-0.3c-0.2-0.1-0.3-0.1-0.5-0.2c-0.3-0.1-0.6-0.2-0.9-0.3c-0.2,0-0.3-0.1-0.5-0.2c-0.4-0.1-0.7-0.2-1.1-0.3
		c-0.1,0-0.2-0.1-0.3-0.1c-0.9-0.2-1.9-0.4-2.9-0.6c-0.1,0-0.3,0-0.4-0.1c-0.3,0-0.6-0.1-0.9-0.1c-5.9-19.4-7.1-39.3-7.3-46.1
		c37.2-12.5,53-54.6,57.9-71c22.4,21.6,49.5,32.1,82.7,32.1c33.8,0,60.9-10.5,82.7-31.9c4.9,16.4,20.7,58.4,57.8,70.9
		c-0.2,6.8-1.4,26.7-7.3,46.1c-0.4,0-0.7,0.1-1.1,0.1c-0.1,0-0.2,0-0.3,0c-0.5,0.1-0.9,0.1-1.3,0.2c-0.3,0.1-0.6,0.1-1,0.2
		c-0.1,0-0.2,0.1-0.4,0.1c-0.3,0.1-0.7,0.2-1,0.3c-0.1,0-0.1,0-0.2,0.1l0,0c-12.6,3.6-21.6,15-21.6,28.9c0,3.6,0.5,10.3,4.1,15.2
		c5.2,9.2,15.1,14.9,26,14.9c16.9,0,30.1-13.2,30.1-30.1c0-14.8-10.2-26.9-24.2-29.5c7-24.2,7.1-47.9,7.1-49v-0.9
		c0-2-1.3-3.8-3.3-4.3c-42.9-11.9-56.4-71.1-56.5-71.7c-0.2-0.8-0.6-1.6-1.2-2.2l-0.9-0.9c-0.9-0.9-2.1-1.3-3.3-1.3
		c-1.2,0-2.4,0.6-3.2,1.5c-21.1,23.4-46.9,34.4-81.1,34.4c-33.1,0-59.6-11.3-81.2-34.4c-0.8-0.9-2-1.4-3.2-1.4s-2.4,0.5-3.3,1.3
		l-0.9,0.9c-0.6,0.6-1,1.4-1.2,2.2c-0.1,0.6-13.6,59.8-56.5,71.7c-1.9,0.5-3.3,2.3-3.3,4.3v0.9c0,1.1,0.1,24.7,7.1,49
		c-13.9,2.7-24.2,14.7-24.2,29.5C85.675,354.175,98.875,367.375,115.775,367.375z M409.875,337.275c0,12-9.1,21.1-21.1,21.1
		c-7.5,0-14.7-4.1-18.3-10.5c-0.1-0.2-0.2-0.4-0.3-0.5c-1.6-2.1-2.5-5.9-2.5-10.1c0-12,9.1-21.1,21.1-21.1
		C400.875,316.175,409.875,325.275,409.875,337.275z M115.775,316.175c12,0,21.1,9.1,21.1,21.1c0,3.7-0.7,7.2-2.1,9.9
		c-3.5,7.1-10.5,11.2-19,11.2c-12,0-21.1-9.1-21.1-21.1S103.675,316.175,115.775,316.175z"/>
	<path style="fill:#51565F;" d="M161.775,368.875c-1.7-1.7-4.3-2.6-6-0.9s-2.6,4.3-0.9,6c1.7,1.7,35.8,44.4,97.3,44.4
		s95.6-42.7,97.3-44.4c1.7-1.7,0.9-4.3-0.9-6c-1.7-0.9-4.3-0.9-6,0.9c0,0-33.3,41-90.5,41
		C195.075,409.875,161.775,368.875,161.775,368.875z"/>
	<path style="fill:#51565F;" d="M252.275,443.975c-25.6,0-46.9,21.3-46.9,46.9c0,3.4,0,6,0.9,9.4c0.9,1.7,2.6,3.4,4.3,3.4h0.9
		c2.6-0.9,4.3-2.6,3.4-5.1s-0.9-5.1-0.9-7.7c0-21.3,17.1-38.4,38.4-38.4s38.4,17.1,38.4,38.4c0,2.6,0,5.1-0.9,7.7
		c0,2.6,0.9,4.3,3.4,5.1c2.6,0,4.3-0.9,5.1-3.4c0.9-3.4,0.9-6,0.9-9.4C299.175,465.275,277.875,443.975,252.275,443.975z"/>
	<path style="fill:#51565F;" d="M485.275,495.175c-34.1-34.1-91.3-35-142.5-35l6.8-29c0-0.9,0-2.6-0.9-3.4c-0.9-0.9-1.7-1.7-3.4-1.7
		c-26.5,0-43.5,9.4-44.4,9.4c-1.7,1.7-2.6,4.3-1.7,6c1.7,1.7,4.3,2.6,6,1.7c0,0,13.7-6.8,35-7.7l-6.8,29c0,0.9,0,2.6,0.9,3.4
		c0.9,0.9,1.7,1.7,3.4,1.7c50.3,0,108.4,0,141.7,33.3c0.9,0.9,2.6,0.9,3.4,0.9s2.6,0,2.6-2.6
		C486.975,499.475,486.975,496.875,485.275,495.175z"/>
	<path style="fill:#51565F;" d="M213.875,294.675v-17.1c0-2.6-1.7-4.3-4.3-4.3s-4.3,1.7-4.3,4.3v17.1c0,2.6,1.7,4.3,4.3,4.3
		C212.175,298.875,213.875,297.175,213.875,294.675z"/>
	<path style="fill:#51565F;" d="M202.775,437.175c-0.9-0.9-17.9-9.4-44.4-9.4c-1.7,0-2.6,0.9-3.4,1.7s-0.9,2.6-0.9,3.4l6.8,29
		c-51.2,0-108.4,0.9-142.5,35c-1.7,1.7-1.7,4.3,0,6c0.9,0.9,2.6,0.9,3.4,0.9c0.8,0,2.6,0,2.6,0.9c32.4-33.3,90.5-33.3,141.7-33.3
		c1.7,0,2.6-0.9,3.4-1.7c0.9-0.9,0.9-2.6,0.9-3.4l-6.8-29c20.5,0.9,35,7.7,35,7.7c2.6,1.7,5.1,0,6-1.7
		C205.375,440.575,204.475,437.975,202.775,437.175z"/>
	<path style="fill:#51565F;" d="M299.175,294.675v-17.1c0-2.6-1.7-4.3-4.3-4.3c-2.6,0-4.3,1.7-4.3,4.3v17.1c0,2.6,1.7,4.3,4.3,4.3
		C297.475,298.875,299.175,297.175,299.175,294.675z"/>
	<path style="fill:#51565F;" d="M265.075,354.375c0-6.8-6-12.8-12.8-12.8s-12.8,6-12.8,12.8s6,12.8,12.8,12.8
		C259.075,367.175,265.075,361.175,265.075,354.375z M247.975,354.375c0-2.6,1.7-4.3,4.3-4.3c2.6,0,4.3,1.7,4.3,4.3
		c0,2.6-1.7,4.3-4.3,4.3C249.675,358.675,247.975,356.975,247.975,354.375z"/>
	<path style="fill:#51565F;" d="M482.475,162.175c-1.5,0-2.8,0.9-3.6,2.1c-4.5,6.6-18.4,23.5-30.3,23.5c-7.3,0-21.1-8-21.1-38.2
		c0-35.6-35.1-64.2-64.2-64.2c-4.1,3-4.1,6,0,9c11.7,0,25.7,6.1,36.4,15.9c12.1,11,18.8,25,18.8,39.3c0,37.3,19.7,47.2,30.1,47.2
		c11.2,0,21.9-8.9,29.1-16.6c-1.6,18.1-6.3,34.6-13.7,47.2c-11.2,19.1-27.8,28.7-49.5,28.7c-5.7,0-11.1-0.8-15.6-2.3
		c-0.1,0-0.1,0-0.2-0.1c-42.9-11.9-56.4-71.1-56.5-71.7c-0.2-0.8-0.6-1.6-1.2-2.2l-0.6-0.6c-0.8-0.8-1.8-1.3-2.9-1.5
		c-0.5-0.1-0.6-0.1-0.8-0.1c-1.1,0-2.1,0.4-2.8,1.2c-21.6,23.3-48.2,34.6-81.4,34.6c-34.3,0-60-10.9-81.1-34.4
		c-0.8-0.9-2-1.5-3.2-1.5s-2.4,0.4-3.3,1.3c-0.9,0.9-1.1,1.6-1.9,4.1c-11.8,39.2-31.4,63.6-56.8,70.7c-0.1,0-0.1,0-0.2,0.1
		c-4.6,1.5-10,2.3-15.6,2.3c-21.6,0-38.2-9.7-49.5-28.7c-7.4-12.6-12.2-29-13.7-47.2c7.2,7.7,17.9,16.6,29.1,16.6
		c10.4,0,30.1-9.9,30.1-47.2c0-14.3,6.7-28.3,18.8-39.3c10.8-9.8,24.7-15.9,36.4-15.9c4-0.8,4-8.4,0-9c-29.1,0-64.2,28.7-64.2,64.2
		c0,30.2-13.8,38.2-21.1,38.2c-12,0-26-17-30.4-23.6c-1.4-2-4.2-2.7-6.4-1.2c-1.2,0.8-1.9,2.3-1.9,3.8c0,45.3,19.1,98.2,72.8,98.2
		c6.6,0,12.9-1,18.4-2.8c27.3-7.6,48.4-32.4,61.3-71.7c21.7,21.3,48.8,31.8,82.5,31.8c33.1,0,60.3-10.5,82.7-32.1
		c5,16.8,21.6,60.9,61.1,72c5.5,1.8,11.8,2.8,18.4,2.8c53.7,0,72.8-53,72.8-98.4C487.175,164.175,485.175,162.075,482.475,162.175z"
		/>
</g>
</svg>